<?xml version="1.0" encoding="UTF-8"?>
<svg width="192px" height="54px" viewBox="0 0 192 54" version="1.1" xmlns="http://www.w3.org/2000/svg" xmlns:xlink="http://www.w3.org/1999/xlink">
    <title>logo-tp</title>
    <g id="Symbols" stroke="none" stroke-width="1" fill="none" fill-rule="evenodd">
        <g id="header/normal" transform="translate(-43.000000, -20.000000)">
            <g id="logo-tp" transform="translate(43.000000, 20.000000)">
                <path d="M91.48,29 L91.48,13.936 L97.416,13.936 L97.416,10.52 L81.792,10.52 L81.792,13.936 L87.7,13.936 L87.7,29 L91.48,29 Z M101.404,29 L101.404,22.084 C101.404,20.8893332 101.74,19.9886668 102.412,19.382 C103.084,18.7753332 103.989333,18.472 105.128,18.472 L106.136,18.472 L106.136,15.14 C105.781333,15.028 105.370667,14.972 104.904,14.972 C104.138667,14.972 103.429333,15.1306668 102.776,15.448 C102.122667,15.7653332 101.562667,16.2133332 101.096,16.792 L101.096,15.14 L97.624,15.14 L97.624,29 L101.404,29 Z M114.212,29.336 C116.265333,29.336 118.113333,28.6453332 119.756,27.264 L118.188,24.688 C116.974667,25.6213332 115.686667,26.088 114.324,26.088 C113.316,26.088 112.471333,25.85 111.79,25.374 C111.108667,24.898 110.656,24.2213332 110.432,23.344 L120.148,23.344 C120.316,22.6346668 120.4,21.944 120.4,21.272 C120.4,20.0773332 120.124667,18.99 119.574,18.01 C119.023333,17.03 118.253333,16.2553332 117.264,15.686 C116.274667,15.1166668 115.145333,14.832 113.876,14.832 C112.532,14.832 111.304667,15.1493332 110.194,15.784 C109.083333,16.4186668 108.210667,17.2913332 107.576,18.402 C106.941333,19.5126668 106.624,20.74 106.624,22.084 C106.624,23.428 106.950667,24.6553332 107.604,25.766 C108.257333,26.8766668 109.162667,27.7493332 110.32,28.384 C111.477333,29.0186668 112.774667,29.336 114.212,29.336 Z M116.732,20.684 L110.432,20.684 C110.637333,19.8253332 111.038667,19.144 111.636,18.64 C112.233333,18.136 112.933333,17.884 113.736,17.884 C114.557333,17.884 115.257333,18.136 115.836,18.64 C116.414667,19.144 116.713333,19.8253332 116.732,20.684 Z M126.32,29 L126.32,21.328 L131.892,29 L136.204,29 L130.576,21.272 L135.784,15.14 L131.304,15.14 L126.32,21.048 L126.32,8 L122.54,8 L122.54,29 L126.32,29 Z M141.2,29 L141.2,21.328 L146.772,29 L151.084,29 L145.456,21.272 L150.664,15.14 L146.184,15.14 L141.2,21.048 L141.2,8 L137.42,8 L137.42,29 L141.2,29 Z M158.544,29.336 C160.597333,29.336 162.445333,28.6453332 164.088,27.264 L162.52,24.688 C161.306667,25.6213332 160.018667,26.088 158.656,26.088 C157.648,26.088 156.803333,25.85 156.122,25.374 C155.440667,24.898 154.988,24.2213332 154.764,23.344 L164.48,23.344 C164.648,22.6346668 164.732,21.944 164.732,21.272 C164.732,20.0773332 164.456667,18.99 163.906,18.01 C163.355333,17.03 162.585333,16.2553332 161.596,15.686 C160.606667,15.1166668 159.477333,14.832 158.208,14.832 C156.864,14.832 155.636667,15.1493332 154.526,15.784 C153.415333,16.4186668 152.542667,17.2913332 151.908,18.402 C151.273333,19.5126668 150.956,20.74 150.956,22.084 C150.956,23.428 151.282667,24.6553332 151.936,25.766 C152.589333,26.8766668 153.494667,27.7493332 154.652,28.384 C155.809333,29.0186668 157.106667,29.336 158.544,29.336 Z M161.064,20.684 L154.764,20.684 C154.969333,19.8253332 155.370667,19.144 155.968,18.64 C156.565333,18.136 157.265333,17.884 158.068,17.884 C158.889333,17.884 159.589333,18.136 160.168,18.64 C160.746667,19.144 161.045333,19.8253332 161.064,20.684 Z M170.652,29 L170.652,22.084 C170.652,20.8893332 170.988,19.9886668 171.66,19.382 C172.332,18.7753332 173.237333,18.472 174.376,18.472 L175.384,18.472 L175.384,15.14 C175.029333,15.028 174.618667,14.972 174.152,14.972 C173.386667,14.972 172.677333,15.1306668 172.024,15.448 C171.370667,15.7653332 170.810667,16.2133332 170.344,16.792 L170.344,15.14 L166.872,15.14 L166.872,29 L170.652,29 Z M181.416,29.336 C182.984,29.336 184.276667,28.944 185.294,28.16 C186.311333,27.376 186.82,26.2933332 186.82,24.912 C186.82,23.8853332 186.507333,23.0593332 185.882,22.434 C185.256667,21.8086668 184.272,21.2253332 182.928,20.684 L181.584,20.124 C181.042667,19.9 180.664667,19.704 180.45,19.536 C180.235333,19.368 180.128,19.1533332 180.128,18.892 C180.128,18.5746668 180.258667,18.332 180.52,18.164 C180.781333,17.996 181.145333,17.912 181.612,17.912 C182.750667,17.912 183.786667,18.3506668 184.72,19.228 L186.624,16.904 C185.373333,15.5226668 183.712,14.832 181.64,14.832 C180.128,14.832 178.900667,15.196 177.958,15.924 C177.015333,16.652 176.544,17.6693332 176.544,18.976 C176.544,20.0026668 176.856667,20.8333332 177.482,21.468 C178.107333,22.1026668 179.054667,22.6813332 180.324,23.204 L181.808,23.82 C182.330667,24.044 182.699333,24.2353332 182.914,24.394 C183.128667,24.5526668 183.236,24.7813332 183.236,25.08 C183.236,25.4533332 183.068,25.738 182.732,25.934 C182.396,26.13 181.976,26.228 181.472,26.228 C180.090667,26.228 178.793333,25.6026668 177.58,24.352 L175.676,26.648 C176.310667,27.488 177.122667,28.146 178.112,28.622 C179.101333,29.098 180.202667,29.336 181.416,29.336 Z" id="Trekkers" fill="#00A26E" fill-rule="nonzero"></path>
                <path d="M90.192,49 L90.192,48.136 L88.464,48.136 L88.464,44.376 L89.856,44.376 C92.368,44.376 94.64,43.48 94.64,40.856 C94.64,38.6 92.96,37.576 89.792,37.576 L84.688,37.576 L84.688,38.456 L85.952,38.456 L85.952,48.136 L84.688,48.136 L84.688,49 L90.192,49 Z M89.424,43.288 L88.464,43.288 L88.464,38.6 L89.488,38.6 C91.456,38.6 91.984,39.512 91.984,40.92 C91.984,42.648 90.848,43.288 89.424,43.288 Z M102.096,49.224 C103.504,49.224 104.24,48.392 104.64,47.448 C104.784,48.552 105.392,49 106.48,49 L108.08,49 L108.08,48.136 C107.52,48.136 107.056,48.056 107.056,47.384 L107.056,43.544 C107.056,41 105.04,40.36 103.616,40.36 C101.968,40.36 100.128,41.192 100.128,42.52 C100.128,43.208 100.608,43.672 101.232,43.672 C101.6,43.672 102.112,43.512 102.4,43.192 L101.824,41.624 C102.176,41.384 102.576,41.272 103.008,41.272 C104,41.272 104.592,41.944 104.592,43.304 L104.592,44.056 C103.712,44.104 102.704,44.248 102,44.44 C100.592,44.84 99.744,45.704 99.744,46.984 C99.744,48.312 100.624,49.224 102.096,49.224 Z M102.976,47.8 C102.368,47.8 101.984,47.352 101.984,46.712 C101.984,46.136 102.272,45.624 102.96,45.32 C103.408,45.112 104,45.016 104.592,44.92 L104.592,45.544 C104.592,46.92 103.856,47.8 102.976,47.8 Z M118.288,49 L118.288,48.136 L116.912,48.136 L116.912,45.048 C116.912,43.64 117.744,42.024 118.8,41.848 L119.264,43.208 C119.424,43.256 119.6,43.288 119.776,43.288 C120.512,43.288 121.216,42.76 121.216,41.864 C121.216,40.84 120.416,40.36 119.552,40.36 C117.888,40.36 117.008,42.184 116.72,43.576 L116.896,40.584 L113.312,40.584 L113.312,41.448 L114.432,41.448 L114.432,48.136 L113.312,48.136 L113.312,49 L118.288,49 Z M128.688,49.224 C130.096,49.224 130.832,48.392 131.232,47.448 C131.376,48.552 131.984,49 133.072,49 L134.672,49 L134.672,48.136 C134.112,48.136 133.648,48.056 133.648,47.384 L133.648,43.544 C133.648,41 131.632,40.36 130.208,40.36 C128.56,40.36 126.72,41.192 126.72,42.52 C126.72,43.208 127.2,43.672 127.824,43.672 C128.192,43.672 128.704,43.512 128.992,43.192 L128.416,41.624 C128.768,41.384 129.168,41.272 129.6,41.272 C130.592,41.272 131.184,41.944 131.184,43.304 L131.184,44.056 C130.304,44.104 129.296,44.248 128.592,44.44 C127.184,44.84 126.336,45.704 126.336,46.984 C126.336,48.312 127.216,49.224 128.688,49.224 Z M129.568,47.8 C128.96,47.8 128.576,47.352 128.576,46.712 C128.576,46.136 128.864,45.624 129.552,45.32 C130,45.112 130.592,45.016 131.184,44.92 L131.184,45.544 C131.184,46.92 130.448,47.8 129.568,47.8 Z M143.696,49.224 C145.28,49.224 146.096,48.232 146.496,47.272 L146.496,49 L149.92,49 L149.92,48.136 L148.8,48.136 L148.8,36.248 L144.976,36.248 L144.976,37.096 L146.32,37.096 L146.32,41.896 C146.048,41.176 145.184,40.36 143.68,40.36 C141.92,40.36 140.048,41.848 140.048,44.856 C140.048,47.8 141.744,49.224 143.696,49.224 Z M144.464,47.816 C143.472,47.816 142.656,46.904 142.656,44.792 C142.656,42.712 143.424,41.656 144.48,41.656 C145.504,41.656 146.4,42.664 146.4,44.76 C146.4,46.92 145.472,47.816 144.464,47.816 Z M157.28,39.384 C158.192,39.384 158.704,38.776 158.704,37.976 C158.704,37.16 158.192,36.536 157.28,36.536 C156.336,36.536 155.856,37.16 155.856,37.976 C155.856,38.776 156.336,39.384 157.28,39.384 Z M159.872,49 L159.872,48.136 L158.752,48.136 L158.752,40.584 L155.152,40.584 L155.152,41.448 L156.272,41.448 L156.272,48.136 L155.152,48.136 L155.152,49 L159.872,49 Z M168.8,49.224 C170.832,49.224 172.56,48.504 172.56,46.488 C172.56,45.032 171.6,44.36 169.936,43.784 L169.752379,43.7217695 L169.752379,43.7217695 L169.404889,43.6051111 C168.571556,43.3217778 168.016,43.0773333 168.016,42.344 C168.016,41.576 168.608,41.272 169.376,41.272 C169.84,41.272 170.4,41.384 170.784,41.528 L171.376,43.16 L172,43.16 L172.32,40.36 L170.704,40.648 C170.16,40.504 169.424,40.36 168.72,40.36 C167.072,40.36 165.616,41.08 165.616,42.776 C165.616,44.744 167.632,45.256 168.544,45.56 C169.552,45.88 170.128,46.248 170.128,47.08 C170.128,47.944 169.504,48.344 168.384,48.344 C167.984,48.344 167.536,48.28 167.168,48.056 L166.448,45.976 L165.824,45.976 L165.44,48.6 C166.368,48.952 167.536,49.224 168.8,49.224 Z M182.672,49.224 C184.496,49.224 185.664,48.184 186.24,46.888 L185.6,46.488 C185.12,47.352 184.32,47.848 183.344,47.848 C181.808,47.848 180.928,46.888 180.912,44.84 L186.432,44.84 C186.448,44.664 186.448,44.52 186.448,44.36 C186.448,41.736 184.736,40.36 182.576,40.36 C180.096,40.36 178.304,42.104 178.304,44.824 C178.304,47.816 180.368,49.224 182.672,49.224 Z M180.912,43.928 C180.992,42.088 181.6,41.304 182.592,41.304 C183.488,41.304 183.968,41.976 183.968,43.208 C183.968,43.4 183.952,43.64 183.936,43.864 L180.912,43.928 Z" id="Paradise" fill="#00C1CA" fill-rule="nonzero"></path>
                <g id="Oval-+-Path-2-Mask">
                    <path d="M36.9975049,1 C57.1558983,1 73.4975049,17.3416066 73.4975049,37.5 C73.4975049,39.5395962 73.3302144,41.5401196 73.0086062,43.4885973 C73.3300117,41.5425424 67.5785148,40.0800346 67.5785148,38.0392034 C67.5785148,36.0786112 66.4225423,36.5824998 65.0626929,37.24489 L64.7972061,37.3744545 C63.8608816,37.8305229 62.8591866,38.2910557 62.0880949,38.0392034 C56.8214549,36.3190242 54.1914389,35.667084 45.125,35.9113074 C41.5751646,36.0069296 39.9704709,34.6488116 38.5094488,33.162514 L38.1606396,32.8040202 C36.5951103,31.1858317 35.0290607,29.5418252 31.1931571,29.5418252 C26.0469933,29.5418252 27.2146461,26.2627295 25.8575574,25.5859156 C23.0730654,24.1972203 22.2693552,24.803571 22.8220215,24.4002075 C26.8797536,21.438672 7.4854326,34.1156071 7.51742066,34.7421409 C7.53149587,35.0178249 6.10818809,36.2533592 4.55691997,37.5753852 L4.08901014,37.9737144 C2.37538326,39.43182 0.665337211,40.8889117 0.681983402,41.1957086 C0.560094785,39.9804968 0.497504891,38.7475577 0.497504891,37.5 C0.497504891,17.3416066 16.8391115,1 36.9975049,1 Z" id="Combined-Shape" fill="#00C1CA"></path>
                    <path d="M41,23.8530237 C41.370729,24.3137274 41.5560935,24.6771988 41.5560935,24.943438 C42.4593971,24.490056 43.0836445,23.9990884 43.7340865,24.0908895 C44.3845285,24.1826906 44.1588708,24.2779522 44.5114158,24.2779522 C44.8639609,24.2779522 45.5219488,24.233061 46.3295581,24.5882495 C46.8679643,24.8250419 47.6298814,24.8671614 48.6153092,24.7146082 L48.2848733,24.3982309 L49.5722515,24.3982309 C48.0886946,23.8430826 47.2919957,23.5027537 47.1821548,23.3772441 C47.0723139,23.2517345 47.287702,23.0742685 47.8283191,22.8448458 L47.5635859,22.6176501 C47.6746124,22.1332031 47.3019608,21.8909796 46.4456312,21.8909796 C45.5893017,21.8909796 45.2770658,21.0799258 45.5089236,19.4578181 C44.9441787,18.860422 44.5672655,18.0411494 44.3781841,17 C44.3781841,17.6204664 44.3781841,17.9515752 44.3781841,17.9933263 L43.8717881,17 C43.6937613,17.2310247 43.6047479,17.506428 43.6047479,17.8262098 C43.4099309,17.6415182 43.2839888,17.5110581 43.2269215,17.4348296 C43.0565207,17.650474 43.0565207,17.9495565 43.2269215,18.3320771 C43.0515542,18.2338355 42.9212222,18.1699913 42.8359257,18.1405445 C42.1137251,20.2789172 42.4590126,21.9225092 43.8717881,23.0713206 C43.7340865,23.3772441 43.377408,23.6707673 43.1066669,23.6707673 C42.9261728,23.6707673 42.2239505,23.7315194 41,23.8530237 Z" id="Path-3" fill="#000000"></path>
                    <path d="M53.0243258,9.65748478 C54.2975989,9.65748478 55.4011927,9.65748478 55.4174819,9.65748478 C56.8434663,9.65748478 58,8.51553902 58,7.10643139 C58,5.87748676 57.1197041,4.85131115 55.9482386,4.6094954 C55.9618129,4.50194562 55.9706362,4.39302578 55.9706362,4.28205085 C55.9706362,2.82293599 54.7733795,1.63988841 53.2958126,1.63988841 C52.4236613,1.63988841 51.6512814,2.05433183 51.1632839,2.69209518 C51.0384,1.06788798 49.5696564,-0.185032706 47.851145,0.0225315201 C46.5948399,0.17460828 45.5550455,1.13365091 45.3242817,2.36328056 C45.2503016,2.7578581 45.2577674,3.14010509 45.3317476,3.49974608 C44.995104,3.14147515 44.5152511,2.9154151 43.9811008,2.9154151 C43.0037484,2.9154151 42.2055772,3.66689351 42.1424565,4.61703074 C41.6985756,4.51975641 41.2160078,4.52660672 40.7069701,4.71499009 C39.7350474,5.07531611 39.0427561,5.9795563 39.0020331,7.00436185 C38.9443421,8.46005155 40.1219161,9.65748478 41.582515,9.65748478 C41.6931459,9.65748478 42.0834081,9.65748478 42.1729988,9.65748478 L47.5355416,9.65748478 M48.6459226,9.65748478 L48.8889033,9.65748478" id="Shape" fill="#FFFFFF" fill-rule="nonzero"></path>
                    <g id="Group-14" transform="translate(12.000000, 7.000000)" fill-rule="nonzero">
                        <path d="M9.91304348,4 C13.1787272,4 15.826087,6.64735974 15.826087,9.91304348 C15.826087,13.1787272 13.1787272,15.826087 9.91304348,15.826087 C6.64735974,15.826087 4,13.1787272 4,9.91304348 C4,6.64735974 6.64735974,4 9.91304348,4 Z M19.3043478,9.39130435 C19.5924964,9.39130435 19.826087,9.62489491 19.826087,9.91304348 C19.826087,10.1842421 19.6191694,10.4071126 19.3545948,10.4323942 L19.3043478,10.4347826 L17.2173913,10.4347826 C16.9292427,10.4347826 16.6956522,10.201192 16.6956522,9.91304348 C16.6956522,9.64184483 16.9025698,9.41897437 17.1671443,9.39369272 L17.2173913,9.39130435 L19.3043478,9.39130435 Z M2.60869565,9.39130435 C2.89684422,9.39130435 3.13043478,9.62489491 3.13043478,9.91304348 C3.13043478,10.1842421 2.92351719,10.4071126 2.65894261,10.4323942 L2.60869565,10.4347826 L0.52173913,10.4347826 C0.233590565,10.4347826 0,10.201192 0,9.91304348 C0,9.64184483 0.206917594,9.41897437 0.47149217,9.39369272 L0.52173913,9.39130435 L2.60869565,9.39130435 Z M3.60234357,2.86830245 L3.64196876,2.9041182 L5.11675136,4.37890081 C5.32050317,4.58265261 5.32050317,4.91299956 5.11675136,5.11675136 C4.92573405,5.30776868 4.62345147,5.31970726 4.418526,5.15256711 L4.37890081,5.11675136 L2.9041182,3.64196876 C2.7003664,3.43821695 2.7003664,3.10787001 2.9041182,2.9041182 C3.09513552,2.71310088 3.3974181,2.7011623 3.60234357,2.86830245 Z M16.9219688,2.9041182 C17.1129861,3.09513552 17.1249247,3.3974181 16.9577845,3.60234357 L16.9219688,3.64196876 L15.4471861,5.11675136 C15.2434343,5.32050317 14.9130874,5.32050317 14.7093356,5.11675136 C14.5183183,4.92573405 14.5063797,4.62345147 14.6735198,4.418526 L14.7093356,4.37890081 L16.1841182,2.9041182 C16.38787,2.7003664 16.718217,2.7003664 16.9219688,2.9041182 Z M9.91304348,0 C10.1842421,0 10.4071126,0.206917594 10.4323942,0.47149217 L10.4347826,0.52173913 L10.4347826,2.60869565 C10.4347826,2.89684422 10.201192,3.13043478 9.91304348,3.13043478 C9.64184483,3.13043478 9.41897437,2.92351719 9.39369272,2.65894261 L9.39130435,2.60869565 L9.39130435,0.52173913 C9.39130435,0.233590565 9.62489491,0 9.91304348,0 Z" id="Combined-Shape" fill="#EFCC00"></path>
                        <path d="M12.7826087,14.8695652 C10.4833711,14.7210357 8.40343301,13.4535734 7.2173913,11.4782609 L4.21565217,11.4782609 C4.71402723,13.2835856 6.03819735,14.7460746 7.7852951,15.4207779 C9.53239285,16.0954813 11.4958349,15.9026197 13.0782609,14.9008696 C12.9773913,14.8904348 12.8834783,14.8765217 12.7826087,14.8695652 Z" id="Path" fill="#FFEB3B"></path>
                    </g>
                    <path d="M1.10776946,40.9178464 C7.17104291,35.8044855 7.25457976,30.2335493 8.81073479,28.9414308 C10.7330312,34.3900358 14.4333973,28.6463227 16.7295421,26.011684 C18.2603053,24.2552583 20.5668073,21.1925864 23.6490482,16.8236682 C24.6004773,19.7264481 25.3577449,21.044197 25.9208512,20.7769148 C26.4839575,20.5096327 26.9836797,20.3730801 27.4200179,20.3672572 L32.1534898,28.0062773 L35.0311166,25.5315784 C41.4068269,32.8578387 44.9768956,36.4544825 45.7413226,36.3215096 C46.5057497,36.1885367 47.4449223,34.8320995 48.5588404,32.2521979 L49.9520488,32.7030934 C53.4501998,27.4423119 55.304804,24.931864 55.5158615,25.1717498 C55.8324476,25.5315784 61.4989253,37.8711375 63.324558,38.1294467 C65.1501908,38.3877558 66.5336624,32.4320406 67.1184377,33.5477528 C67.5082878,34.2915609 69.4714825,37.6051758 73.0080218,43.4885973 L66.4782491,41.1133609 L67.6861737,45.2876453 L63.5550889,42.7041244 C64.4598391,46.2004523 65.647622,48.2447053 67.1184377,48.8368831 C69.3246611,49.7251499 53.9246256,42.9164705 53.3835224,39.5905256 C53.0227869,37.373229 51.0214639,37.1466119 47.3795533,38.9106743 L49.4931348,41.5023569 L34.2354271,37.3519419 C35.9752432,42.7430235 39.6015464,46.0887281 45.1143368,47.3890559 C37.3402914,48.8368831 32.6807039,44.3951614 28.0149594,44.3951614 C23.3492148,44.3951614 17.9381826,45.4150816 15.5614235,45.993127 C19.7494966,43.4073151 27.4200179,35.073409 27.4200179,33.5477528 C27.4200179,32.5306487 26.6345424,30.2912536 25.0635914,26.8295675 C17.8135623,34.1096659 13.5456386,37.8762923 12.2598204,38.1294467 C14.1328957,35.8231833 15.170237,33.2550788 15.3718441,30.4251333 C11.1903098,34.2145264 8.65532929,36.700012 7.76690242,37.8815902 C8.81073479,33.8176601 1.10776946,40.9178464 1.10776946,40.9178464 Z" id="Path-2" stroke="#00A26E" fill="#00A26E" stroke-linecap="round" stroke-linejoin="round"></path>
                </g>
            </g>
        </g>
    </g>
</svg>